<mxfile host="app.diagrams.net" modified="2024-04-02T09:06:12.727Z" agent="Mozilla/5.0 (Windows NT 10.0; Win64; x64) AppleWebKit/537.36 (KHTML, like Gecko) Chrome/122.0.0.0 Safari/537.36" version="24.2.1" etag="Q3642QfDwAEAUbAQ30Js" type="github">
  <diagram name="第 1 页" id="tfa93M_4YZ8sI9DwvlmE">
    <mxGraphModel>
      <root>
        <mxCell id="0" />
        <mxCell id="1" parent="0" />
      </root>
    </mxGraphModel>
  </diagram>
</mxfile>
